<?xml version="1.0"?>
<!-- Generated by SVGo -->
<svg width="5190" height="1080"
     xmlns="http://www.w3.org/2000/svg"
     xmlns:xlink="http://www.w3.org/1999/xlink">
<defs>
<marker id="arrowhead" refX="7" refY="2" markerWidth="8" markerHeight="8" orient="auto-start-reverse" >
<path d="M0,0 V4 L8,2 Z" style="fill:black" />
</marker>
<style type="text/css">
<![CDATA[
text { font-family: monospace; font-size: 25px; }
]]>
</style>
</defs>
<rect x="960" y="760" width="300" height="40" style="fill:white;stroke:black" />
<text x="1110" y="780" style="text-anchor:middle;fill:black" >internal/phase4</text>
<rect x="2810" y="1000" width="100" height="40" style="fill:white;stroke:black" />
<text x="2860" y="1020" style="text-anchor:middle;fill:black" >autog</text>
<rect x="2680" y="280" width="360" height="40" style="fill:white;stroke:black" />
<text x="2860" y="300" style="text-anchor:middle;fill:black" >internal/processor</text>
<rect x="4410" y="280" width="380" height="40" style="fill:white;stroke:black" />
<text x="4600" y="300" style="text-anchor:middle;fill:black" >internal/collectors</text>
<rect x="4470" y="520" width="260" height="40" style="fill:white;stroke:black" />
<text x="4600" y="540" style="text-anchor:middle;fill:black" >internal/geom</text>
<rect x="2700" y="520" width="320" height="40" style="fill:white;stroke:black" />
<text x="2860" y="540" style="text-anchor:middle;fill:black" >internal/monitor</text>
<rect x="2720" y="40" width="280" height="40" style="fill:white;stroke:black" />
<text x="2860" y="60" style="text-anchor:middle;fill:black" >internal/graph</text>
<rect x="1600" y="760" width="300" height="40" style="fill:white;stroke:black" />
<text x="1750" y="780" style="text-anchor:middle;fill:black" >internal/phase2</text>
<rect x="3100" y="760" width="620" height="40" style="fill:white;stroke:black" />
<text x="3410" y="780" style="text-anchor:middle;fill:black" >internal/processor/preprocessor</text>
<rect x="1320" y="520" width="220" height="40" style="fill:white;stroke:black" />
<text x="1430" y="540" style="text-anchor:middle;fill:black" >internal/ns</text>
<rect x="1960" y="760" width="300" height="40" style="fill:white;stroke:black" />
<text x="2110" y="780" style="text-anchor:middle;fill:black" >internal/phase1</text>
<rect x="3900" y="760" width="300" height="40" style="fill:white;stroke:black" />
<text x="4050" y="780" style="text-anchor:middle;fill:black" >internal/phase5</text>
<rect x="40" y="280" width="100" height="40" style="fill:white;stroke:black" />
<text x="90" y="300" style="text-anchor:middle;fill:black" >graph</text>
<rect x="2320" y="760" width="300" height="40" style="fill:white;stroke:black" />
<text x="2470" y="780" style="text-anchor:middle;fill:black" >internal/phase3</text>
<rect x="4910" y="520" width="240" height="40" style="fill:white;stroke:black" />
<text x="5030" y="540" style="text-anchor:middle;fill:black" >internal/num</text>
<rect x="200" y="280" width="640" height="40" style="fill:white;stroke:black" />
<text x="520" y="300" style="text-anchor:middle;fill:black" >internal/processor/postprocessor</text>
<polyline points="1110,800 2860,1000" style="stroke-width:2;fill:none;stroke:black;marker-end:url(#arrowhead)" />
<polyline points="2860,320 3840,540 3840,780 2860,1000" style="stroke-width:2;fill:none;stroke:black;marker-end:url(#arrowhead)" />
<polyline points="4600,320 4600,520" style="stroke-width:2;fill:none;stroke:black;marker-end:url(#arrowhead)" />
<polyline points="2860,320 2860,520" style="stroke-width:2;fill:none;stroke:black;marker-end:url(#arrowhead)" />
<polyline points="2860,80 1750,300 1750,540 1750,760" style="stroke-width:2;fill:none;stroke:black;marker-end:url(#arrowhead)" />
<polyline points="2860,80 3780,300 3780,540 3410,760" style="stroke-width:2;fill:none;stroke:black;marker-end:url(#arrowhead)" />
<polyline points="2860,80 900,300 900,540 900,780 2860,1000" style="stroke-width:2;fill:none;stroke:black;marker-end:url(#arrowhead)" />
<polyline points="2860,560 1750,760" style="stroke-width:2;fill:none;stroke:black;marker-end:url(#arrowhead)" />
<polyline points="1430,560 1750,760" style="stroke-width:2;fill:none;stroke:black;marker-end:url(#arrowhead)" />
<polyline points="1430,560 1110,760" style="stroke-width:2;fill:none;stroke:black;marker-end:url(#arrowhead)" />
<polyline points="3410,800 2860,1000" style="stroke-width:2;fill:none;stroke:black;marker-end:url(#arrowhead)" />
<polyline points="2860,560 3410,760" style="stroke-width:2;fill:none;stroke:black;marker-end:url(#arrowhead)" />
<polyline points="2860,80 2860,280" style="stroke-width:2;fill:none;stroke:black;marker-end:url(#arrowhead)" />
<polyline points="2860,560 2110,760" style="stroke-width:2;fill:none;stroke:black;marker-end:url(#arrowhead)" />
<polyline points="2860,80 1110,300 1110,540 1110,760" style="stroke-width:2;fill:none;stroke:black;marker-end:url(#arrowhead)" />
<polyline points="2860,80 4050,300 4050,540 4050,760" style="stroke-width:2;fill:none;stroke:black;marker-end:url(#arrowhead)" />
<polyline points="2110,800 2860,1000" style="stroke-width:2;fill:none;stroke:black;marker-end:url(#arrowhead)" />
<polyline points="2860,80 1430,300 1430,520" style="stroke-width:2;fill:none;stroke:black;marker-end:url(#arrowhead)" />
<polyline points="2860,80 2110,300 2110,540 2110,760" style="stroke-width:2;fill:none;stroke:black;marker-end:url(#arrowhead)" />
<polyline points="2860,560 1110,760" style="stroke-width:2;fill:none;stroke:black;marker-end:url(#arrowhead)" />
<polyline points="90,320 90,540 90,780 2860,1000" style="stroke-width:2;fill:none;stroke:black;marker-end:url(#arrowhead)" />
<polyline points="2860,80 2470,300 2470,540 2470,760" style="stroke-width:2;fill:none;stroke:black;marker-end:url(#arrowhead)" />
<polyline points="5030,560 4050,760" style="stroke-width:2;fill:none;stroke:black;marker-end:url(#arrowhead)" />
<polyline points="2860,80 90,280" style="stroke-width:2;fill:none;stroke:black;marker-end:url(#arrowhead)" />
<polyline points="2860,80 520,280" style="stroke-width:2;fill:none;stroke:black;marker-end:url(#arrowhead)" />
<polyline points="520,320 520,540 520,780 2860,1000" style="stroke-width:2;fill:none;stroke:black;marker-end:url(#arrowhead)" />
<polyline points="1750,800 2860,1000" style="stroke-width:2;fill:none;stroke:black;marker-end:url(#arrowhead)" />
<polyline points="2470,800 2860,1000" style="stroke-width:2;fill:none;stroke:black;marker-end:url(#arrowhead)" />
<polyline points="4050,800 2860,1000" style="stroke-width:2;fill:none;stroke:black;marker-end:url(#arrowhead)" />
<polyline points="2860,560 2470,760" style="stroke-width:2;fill:none;stroke:black;marker-end:url(#arrowhead)" />
<polyline points="4600,560 4050,760" style="stroke-width:2;fill:none;stroke:black;marker-end:url(#arrowhead)" />
<polyline points="2860,560 4050,760" style="stroke-width:2;fill:none;stroke:black;marker-end:url(#arrowhead)" />
<polyline points="2860,320 3410,540 3410,760" style="stroke-width:2;fill:none;stroke:black;marker-end:url(#arrowhead)" />
<polyline points="2860,560 2860,780 2860,1000" style="stroke-width:2;fill:none;stroke:black;marker-end:url(#arrowhead)" />
</svg>
